<svg width="136" height="52" viewBox="0 0 136 52" fill="none" xmlns="http://www.w3.org/2000/svg">
<g id="logo">
<g id="Group">
<path id="Vector" d="M87.6724 31.1828H89.0187C90.7227 31.1828 91.3441 30.1943 91.3441 28.2977C91.3441 26.3728 90.6192 25.4127 88.708 25.4127H87.6724V31.1828ZM87.6724 22.7641H88.8351C90.0496 22.7641 90.9816 21.9317 90.9816 20.3757C90.9816 18.6352 90.3085 17.7271 88.8869 17.7271H87.6724V22.7641ZM84.4668 15.0739H89.2258C92.6621 15.0739 94.192 16.838 94.192 20.0352C94.192 21.648 93.5188 23.3364 91.9701 23.956C93.5988 24.6843 94.5544 25.9802 94.5544 28.3971C94.5544 31.4902 93.1846 33.8266 89.5412 33.8266H84.4715V15.0739H84.4668Z" fill="#72B0DB"/>
</g>
<path id="Vector_2" d="M97.2373 33.8313V15.0739H100.443V31.0267H105.484V33.8313H97.2373Z" fill="#72B0DB"/>
<g id="Group_2">
<path id="Vector_3" d="M107.452 15.0739H110.658V29.2342C110.658 30.6105 111.199 31.2868 112.366 31.2868C113.529 31.2868 114.07 30.6105 114.07 29.2342V15.0739H117.276V29.1018C117.276 32.3226 115.412 34.0915 112.362 34.0915C109.311 34.0915 107.447 32.3226 107.447 29.1018V15.0739H107.452Z" fill="#72B0DB"/>
</g>
<path id="Vector_4" d="M120.383 33.8313V15.0739H128.964V17.8785H123.584V22.7121H127.721V25.5168H123.584V31.0267H129.327V33.8313H120.383Z" fill="#72B0DB"/>
<path id="Vector_5" d="M7.86108 15.0739H11.0149L7.11263 33.8313H3.9023L0 15.0739H3.15385L5.48393 28.0896H5.531L7.86108 15.0739Z" fill="#234862"/>
<path id="Vector_6" d="M14.7431 26.8694H17.3274L16.0612 18.8149H16.0094L14.7431 26.8694ZM13.7075 33.8313H10.6055L14.0465 15.0739H18.0288L21.4698 33.8313H18.3677L17.7981 29.674H14.2818L13.7075 33.8313Z" fill="#234862"/>
<path id="Vector_7" d="M23.3242 33.8313V15.0739H26.2992L30.2015 25.8053H30.2533V15.0739H33.1529V33.8313H30.3568L26.2757 22.1162H26.2239V33.8313H23.3242Z" fill="#234862"/>
<path id="Vector_8" d="M39.8985 15.0739H36.6929V33.8313H39.8985V15.0739Z" fill="#234862"/>
<path id="Vector_9" d="M43.2876 33.8313V15.0739H46.4932V31.0267H51.5347V33.8313H43.2876Z" fill="#234862"/>
<path id="Vector_10" d="M53.3472 33.8313V15.0739H56.5528V31.0267H61.5942V33.8313H53.3472Z" fill="#234862"/>
<path id="Vector_11" d="M66.457 26.8694H69.0413L67.775 18.8149H67.7232L66.457 26.8694ZM65.4214 33.8313H62.3193L65.7603 15.0739H69.7426L73.1789 33.8313H70.0769L69.5073 29.674H65.991L65.4214 33.8313Z" fill="#234862"/>
<g id="Group_3">
<path id="Vector_12" d="M74.44 51.0233C74.44 51.0233 75.1885 47.3343 74.9202 46.1093C74.2188 42.9026 74.2188 38.5562 75.3768 34.8624C76.1252 32.4645 76.8831 25.8573 77.2173 20.1439C77.5468 14.4306 78.0787 10.3112 78.3659 5.38767C78.5071 2.91883 77.0384 1.25402 77.0384 1.25402L77.9704 0.416885C80.004 2.71073 79.9569 6.85857 79.7639 10.2118C79.5709 13.5604 79.2367 22.6364 79.0343 26.1836C78.8272 29.7308 78.6718 39.2088 78.4318 43.3472C78.1917 47.4856 75.2732 51.9645 75.2732 51.9645C75.2732 51.9645 73.5033 51.8557 74.44 51.0233Z" fill="#FDD24F"/>
<path id="Vector_13" d="M73.5503 50.4132C73.781 50.1767 73.5786 50.1294 73.5927 50.0679C73.2114 50.5409 73.6068 50.4274 73.5503 50.4132Z" fill="#FDD24F"/>
</g>
<path id="Vector_14" d="M76.2949 51.5247L76.3373 51.6051L76.3655 51.1747L76.2949 51.5247Z" fill="#FDD24F"/>
<g id="Group_4">
<path id="Vector_15" d="M77.4246 49.3254C77.048 49.4058 77.0904 50.1578 76.7844 50.5031L76.6855 50.5362L76.8173 50.8294C77.0386 50.3281 77.1939 49.6328 77.4246 49.3254Z" fill="#FDD24F"/>
<path id="Vector_16" d="M78.5777 48.3558C78.4318 48.3889 78.5918 48.0437 78.4224 48.6349L78.4741 48.5923C78.4883 48.5403 78.5212 48.4741 78.5777 48.3558Z" fill="#FDD24F"/>
<path id="Vector_17" d="M78.4697 48.5925C78.3748 48.8498 78.6356 48.4686 78.4697 48.5925V48.5925Z" fill="#FDD24F"/>
<path id="Vector_18" d="M78.8413 47.4004L78.8271 47.7741C78.926 47.7315 79.039 47.4288 79.0531 47.5612C79.1096 47.1876 79.0201 47.2396 78.8413 47.4004Z" fill="#FDD24F"/>
<path id="Vector_19" d="M78.7285 47.0079L78.7144 47.1971C78.7567 47.1735 78.7802 47.1309 78.7285 47.0079Z" fill="#FDD24F"/>
<path id="Vector_20" d="M78.686 47.5991L78.719 47.1971C78.653 47.2302 78.5589 47.2018 78.6954 47.3815C78.6154 47.3153 78.6766 47.4194 78.686 47.5991Z" fill="#FDD24F"/>
<path id="Vector_21" d="M78.5639 47.7883C78.4321 47.9491 78.3003 48.1714 78.3238 47.8025C78.1308 48.4457 78.3662 48.4363 78.5639 47.7883Z" fill="#FDD24F"/>
<path id="Vector_22" d="M77.18 49.0748L76.9917 49.2687V49.5099C76.9964 49.3916 77.2788 49.0984 77.18 49.0748Z" fill="#FDD24F"/>
<path id="Vector_23" d="M79.5995 45.2627C79.5383 45.2249 79.3971 45.3478 79.3076 45.3526L79.3265 45.6316C79.3971 45.5086 79.4959 45.2627 79.5995 45.2627Z" fill="#FDD24F"/>
<path id="Vector_24" d="M79.3074 45.3573L79.2745 44.9411C79.1991 45.2911 79.2274 45.3573 79.3074 45.3573Z" fill="#FDD24F"/>
</g>
<path id="Vector_25" d="M78.4131 46.8377L78.446 47.5187L78.4507 46.7242L78.4131 46.8377Z" fill="#FDD24F"/>
<path id="Vector_26" d="M79.8297 43.6925L79.9615 43.9432L79.7686 43.4986L79.8297 43.6925Z" fill="#FDD24F"/>
<g id="Group_5">
<path id="Vector_27" d="M79.8677 42.7087C79.9901 42.8743 80.0936 42.5006 80.1642 42.6756C80.1548 42.4155 80.056 42.1885 79.9618 41.9899C80.0089 42.2027 79.9854 42.425 79.8677 42.7087Z" fill="#FDD24F"/>
<path id="Vector_28" d="M79.8345 41.6493C79.858 41.7534 79.9098 41.8669 79.9616 41.9851C79.938 41.8716 79.9004 41.7628 79.8345 41.6493Z" fill="#FDD24F"/>
<path id="Vector_29" d="M79.4155 44.2695C79.4579 44.2459 79.5709 44.1986 79.6368 43.9715L79.4344 44.1134L79.4155 44.2695Z" fill="#FDD24F"/>
<path id="Vector_30" d="M79.4297 44.1134L79.4344 44.1087C79.4532 43.9337 79.4721 43.8155 79.4768 43.7634C79.4721 43.806 79.4579 43.9148 79.4297 44.1134Z" fill="#FDD24F"/>
<path id="Vector_31" d="M79.4116 44.3093L79.4165 44.2695C79.3967 44.2795 79.3917 44.2894 79.4116 44.3093Z" fill="#FDD24F"/>
<path id="Vector_32" d="M78.8649 45.9107C78.8178 45.6553 78.8084 45.1728 78.5542 45.5796C78.6389 45.7735 78.7896 45.537 78.8649 45.9107Z" fill="#FDD24F"/>
<path id="Vector_33" d="M79.1472 44.4682L79.0342 44.8749C79.086 44.8749 79.1707 44.8134 79.2036 44.9364L79.1472 44.4682Z" fill="#FDD24F"/>
</g>
<path id="Vector_34" d="M79.1191 44.2553L79.1474 44.4681L79.185 44.3168L79.1191 44.2553Z" fill="#FDD24F"/>
<g id="Group_6">
<path id="Vector_35" d="M79.6277 42.3209C79.5523 42.146 79.5523 41.9568 79.5523 41.7487C79.5053 41.971 79.4723 42.2074 79.4629 42.4297C79.5194 42.4628 79.6229 42.5622 79.6277 42.3209Z" fill="#FDD24F"/>
<path id="Vector_36" d="M79.5348 43.1648L79.5248 43.125C79.505 43.1499 79.5 43.1698 79.5348 43.1648Z" fill="#FDD24F"/>
</g>
<path id="Vector_37" d="M79.6339 39.6676L79.5947 39.702L79.629 39.7119L79.6339 39.6676Z" fill="#FDD24F"/>
<g id="Group_7">
<path id="Vector_38" d="M79.425 42.4628C79.3827 42.6331 79.4203 42.7372 79.4721 42.8365L79.458 42.425C79.4345 42.4108 79.4203 42.4061 79.425 42.4628Z" fill="#FDD24F"/>
<path id="Vector_39" d="M79.7687 41.0629L79.6558 41.3514C79.717 41.271 79.8158 41.096 79.7687 41.0629Z" fill="#FDD24F"/>
<path id="Vector_40" d="M79.5801 43.0689L79.59 43.0938C79.6297 43.044 79.6098 43.049 79.5801 43.0689Z" fill="#FDD24F"/>
</g>
<path id="Vector_41" d="M79.5806 43.0682L79.4771 42.8364L79.5241 43.1249L79.5806 43.0682Z" fill="#FDD24F"/>
<g id="Group_8">
<path id="Vector_42" d="M78.4463 39.0007C78.6205 39.0339 78.7664 39.4879 78.564 39.8663C78.6817 40.2494 79.2654 40.0223 79.5949 39.7007C79.5195 39.6865 79.4489 39.6818 79.3595 39.2892C79.2606 39.4217 79.1053 40.1453 78.9594 39.8142C78.8888 39.294 79.0394 39.3933 79.1383 39.1474C78.917 39.3555 78.8464 38.4805 78.5216 38.5845L78.6205 39.0386C78.5687 39.0433 78.4934 38.8778 78.4463 39.0007Z" fill="#FDD24F"/>
<path id="Vector_43" d="M79.5522 40.4433L79.5664 40.6041C79.604 40.4196 79.6793 40.2919 79.8253 40.0554C79.7499 39.7859 79.6888 39.7291 79.6276 39.7055L79.5758 40.4953L79.5522 40.4433Z" fill="#FDD24F"/>
<path id="Vector_44" d="M79.5384 41.3277C79.3548 41.1953 79.2889 40.8075 79.0724 41.0345C79.0677 41.5074 79.2183 41.3703 79.2889 41.654C79.2701 40.8926 79.3878 41.8763 79.5149 41.3324C79.5431 41.4838 79.5478 41.6209 79.5478 41.7486L79.6514 41.3608L79.6372 41.3797V41.3845C79.609 41.4176 79.5949 41.427 79.6137 41.3892L79.609 41.375L79.5384 41.3277C79.5855 41.1101 79.5902 41.2946 79.609 41.3655L79.6372 41.375L79.5619 40.6088C79.5337 40.7649 79.5337 40.9683 79.5384 41.3277Z" fill="#FDD24F"/>
<path id="Vector_45" d="M78.2437 45.0929C78.2674 45.0738 78.2816 45.0786 78.2911 45.0786C78.2816 45.0214 78.2674 45.0023 78.2437 45.0929Z" fill="#FDD24F"/>
<path id="Vector_46" d="M78.4176 44.8039C78.4317 44.8654 78.5023 44.9269 78.4412 45.1019C78.3517 45.2438 78.3517 45.083 78.2905 45.0783C78.3141 45.1918 78.3376 45.485 78.5071 45.1634L78.4929 45.1066C78.6247 44.8181 78.9119 44.4492 78.9354 44.506C78.7518 44.5675 78.62 44.6289 78.4176 44.8039Z" fill="#FDD24F"/>
<path id="Vector_47" d="M78.992 43.0398L78.9308 42.4013L78.752 42.7182L78.8508 42.704C78.7943 43.0635 78.9167 42.9925 78.992 43.0398Z" fill="#FDD24F"/>
</g>
<path id="Vector_48" d="M79.7264 39.6014L79.9241 39.6913L79.6558 39.3129L79.7264 39.6014Z" fill="#FDD24F"/>
<path id="Vector_49" d="M79.731 38.7737L79.9051 38.8116L79.8063 38.5893L79.731 38.7737Z" fill="#FDD24F"/>
<g id="Group_9">
<path id="Vector_50" d="M79.2793 7.40718L79.3122 7.59636C79.3028 7.51123 79.2934 7.45448 79.2793 7.40718Z" fill="#FDD24F"/>
<path id="Vector_51" d="M79.3798 6.05482L79.2944 6.01671C79.3419 6.08341 79.375 6.112 79.3798 6.05482Z" fill="#FDD24F"/>
<path id="Vector_52" d="M80.4751 18.6068C80.6493 18.342 80.9129 18.0535 80.7152 18.0771L80.5222 18.1528C80.5504 18.342 80.5222 18.4886 80.4751 18.6068Z" fill="#FDD24F"/>
</g>
<path id="Vector_53" d="M79.6278 4.75867L79.5854 4.8438L79.7879 4.99988L79.6278 4.75867Z" fill="#FDD24F"/>
<g id="Group_10">
<path id="Vector_54" d="M78.8135 4.68774L78.8747 4.33775C78.8464 4.42289 78.8276 4.5364 78.8135 4.68774Z" fill="#FDD24F"/>
<path id="Vector_55" d="M78.8604 14.7664L79.0345 14.9982C79.0628 14.6576 78.9545 14.7995 78.8604 14.7664Z" fill="#FDD24F"/>
<path id="Vector_56" d="M79.9101 30.3551C79.9948 30.1234 80.0278 29.9389 80.0466 29.7781C79.9289 30.0524 79.7548 30.2747 79.9101 30.3551Z" fill="#FDD24F"/>
<path id="Vector_57" d="M77.2881 6.73564C77.3163 6.84915 77.3493 6.90117 77.3964 6.90117C77.3681 6.78293 77.3399 6.71672 77.2881 6.73564Z" fill="#FDD24F"/>
<path id="Vector_58" d="M80.0655 29.1065L80.0137 29.2295C80.0372 29.3997 80.0607 29.5747 80.0419 29.7781C80.1314 29.5747 80.1925 29.3382 80.0655 29.1065Z" fill="#FDD24F"/>
<path id="Vector_59" d="M75.5467 41.0865L75.5229 41.1437C75.5467 41.1532 75.5514 41.1246 75.5467 41.0865Z" fill="#FDD24F"/>
<path id="Vector_60" d="M73.979 48.6822C73.979 48.6065 73.9931 48.4883 74.0072 48.3748C73.9884 48.4268 73.979 48.5214 73.979 48.6822Z" fill="#72B0DB"/>
<path id="Vector_61" d="M79.915 35.4678C79.9245 35.644 79.934 35.4963 79.915 35.4678V35.4678Z" fill="#FDD24F"/>
<path id="Vector_62" d="M79.134 36.2912C79.1151 36.2531 79.0866 36.2245 79.0439 36.2198C79.0914 36.2341 79.1198 36.2627 79.134 36.2912Z" fill="#FDD24F"/>
<path id="Vector_63" d="M78.9467 27.3289L78.9517 27.314C78.907 27.3637 78.912 27.3588 78.9467 27.3289Z" fill="#FDD24F"/>
<path id="Vector_64" d="M79.8208 35.7279L79.882 35.5056C79.8679 35.5435 79.849 35.6097 79.8208 35.7279Z" fill="#FDD24F"/>
<path id="Vector_65" d="M79.9103 35.6948L79.8867 35.8462C79.9197 35.8698 79.9385 35.8509 79.9103 35.6948Z" fill="#FDD24F"/>
<path id="Vector_66" d="M79.915 35.2219L79.8867 35.5057C79.9008 35.4725 79.9103 35.4584 79.9197 35.4678C79.915 35.4158 79.9103 35.3448 79.915 35.2219Z" fill="#FDD24F"/>
<path id="Vector_67" d="M77.2268 27.0539L77.208 27.087C77.2645 27.2762 77.2598 27.1958 77.2268 27.0539Z" fill="#FDD24F"/>
</g>
<path id="Vector_68" d="M78.6909 13.9862L78.6958 14.0108L78.7056 13.9813L78.6909 13.9862Z" fill="#FDD24F"/>
<g id="Group_11">
<path id="Vector_69" d="M78.5732 13.357C78.7992 13.6361 78.7615 13.7827 78.705 13.9861L79.2652 13.8016L78.5732 13.357Z" fill="#FDD24F"/>
<path id="Vector_70" d="M75.6642 28.6336L75.5936 28.7376C75.6501 28.818 75.6924 28.8937 75.6642 28.6336ZM79.7407 33.8455C79.7218 33.9969 79.7218 34.1293 79.7736 34.1719C79.7454 34.1955 79.7124 34.2003 79.6842 34.1388C79.6465 33.9591 79.6842 33.8881 79.7407 33.8455ZM79.7877 33.5381L79.7971 33.5523C79.8442 33.3537 79.8772 33.2543 79.7877 33.5381ZM79.3264 5.34987C79.2605 5.52013 79.237 5.66202 79.317 5.75188C79.3594 5.60053 79.3547 5.4681 79.3264 5.34987ZM79.3547 4.36138C79.4629 4.23842 79.2793 3.95937 79.2134 3.82221C79.1852 4.08234 79.0911 4.2195 79.3547 4.36138ZM79.0816 10.1173C78.7804 10.6706 79.0534 11.2429 79.1805 11.5693C79.0769 11.7821 78.7474 11.3564 78.7898 11.9902C78.8275 12.8841 79.2417 11.8625 79.2605 12.3969L78.9169 12.7516C79.0958 13.4516 78.8369 13.934 78.7474 14.5016C78.7615 14.634 78.7898 14.7002 78.818 14.7333C78.6345 15.3293 79.011 16.0292 78.8745 16.4786C78.818 16.365 78.658 16.7245 78.5827 16.7718L78.7098 17.6089C78.658 17.24 78.4791 17.24 78.3097 17.1596C78.3097 17.4197 78.3991 17.5474 78.4085 17.7224C78.352 17.6089 78.2955 17.4954 78.2061 17.6278L78.4415 18.5123C78.4744 18.465 78.4932 18.3657 78.5027 18.2805C78.4885 18.4981 78.5733 18.971 78.4085 19.269C78.3426 19.2359 78.2861 19.1271 78.2155 19.0987C78.4273 18.8528 78.272 18.692 78.1496 18.5501C78.1402 19.1508 78.0931 18.6967 77.9519 18.9758C77.9331 19.3967 78.159 19.5859 78.3144 19.4866C78.2155 19.9595 78.1637 20.1061 78.3097 20.6075L78.0743 20.4987L78.1214 20.9527L77.8484 20.5696C77.6271 21.4257 78.2579 20.7541 78.0508 21.7095L77.8389 21.6953C77.8954 22.0689 78.2438 22.225 77.966 22.4946C78.0649 22.8635 78.3144 21.9034 78.2908 22.75C78.1684 22.8919 78.0649 23.204 78.0037 23.4452C78.079 23.7243 78.272 23.2608 78.2532 23.0858C78.2485 24.3722 77.4671 23.8141 77.6459 24.9776C77.8342 24.604 78.0272 25.3418 78.1025 24.4195C78.1873 24.8735 77.7165 25.2566 77.9048 25.7391L77.6601 25.4127C77.6412 25.5783 77.7213 25.7722 77.7448 25.8668L77.5424 25.81C77.8483 26.4154 77.2647 26.8458 77.7024 27.2336C77.3541 26.9593 77.6789 27.6593 77.5094 27.8674C77.2929 27.3708 77.6601 26.5336 77.3164 26.4343C77.1893 26.6424 77.34 26.8505 77.2129 27.0491C77.1799 26.8978 77.1093 26.6755 77.0434 26.614C76.7704 27.3045 77.1329 27.7539 77.1705 28.1984L77.1752 27.4228C77.5141 27.5221 77.1988 27.7728 77.4435 28.0187C77.2129 28.3782 77.4482 28.714 77.2929 29.0119C77.307 28.9315 77.2741 28.9221 77.2835 28.8369C77.1846 29.6741 76.5915 29.8301 76.535 30.1565C76.4503 30.4734 76.5444 31.1166 76.7233 30.9132C76.7845 31.1923 76.7751 29.7923 77.1564 30.3315C76.5727 30.7335 77.2176 31.3436 76.6904 32.3274C76.5821 31.8402 76.3562 32.5449 76.2855 32.1145C76.2479 32.6111 76.3138 32.6442 76.4221 32.8902L76.2338 33.0084C76.4597 33.7273 76.5303 33.2165 76.5021 34.257C76.4597 33.8928 76.1773 34.6023 76.1255 34.3185C76.0549 34.5834 76.0125 34.8766 76.0549 35.1036L76.0408 35.0658C75.8854 36.007 75.6218 35.761 75.6077 36.6549L75.7207 36.5887C75.7489 37.7474 75.3771 39.1379 75.4665 40.3298L75.57 39.923C75.5183 40.046 75.6642 40.7129 75.5277 41.0723C75.5183 41.0014 75.4712 40.8737 75.4853 40.8027C75.3771 40.8122 75.2123 40.9494 75.1841 41.2331L75.3535 41.3419L75.2217 41.4554C75.2217 41.8858 75.4618 41.3277 75.4618 41.7581C74.9628 42.023 75.4759 43.6121 75.1229 44.0236C75.5041 44.279 75.0758 43.2006 75.4288 43.4891C75.3912 43.6263 75.3347 43.6925 75.3394 43.9716L75.5371 43.8533C75.4994 45.1918 75.6359 45.556 75.6736 47.0316L75.6312 46.9796C75.5324 47.4383 75.5512 47.6701 75.7113 47.8924C75.6077 47.9775 75.5842 47.6512 75.4806 47.8167C75.9419 48.6633 74.9063 49.3018 75.1982 49.8126C74.7934 49.6896 74.2285 50.5882 73.9743 50.1247L73.9696 50.4369C73.7154 50.2903 74.1296 49.491 73.866 49.2687L74.285 48.3606C74.1767 48.3795 74.0402 48.2045 73.9884 48.3511C74.012 48.1194 74.0214 47.916 73.8331 48.1998C74.3697 47.0411 74.2991 46.1992 73.979 44.9175C73.7907 43.7162 73.5977 42.5007 73.8095 41.3135C73.786 41.1527 73.6872 41.2426 73.6213 41.3041C73.8896 40.869 73.48 40.8831 73.4424 40.6419L73.866 40.0176C73.7672 39.7528 73.6354 39.9467 73.5601 39.923C73.5365 38.6886 74.0873 37.5677 74.059 36.5603C74.252 36.2813 74.3509 36.6975 74.478 36.3049C73.9508 36.7637 74.5768 35.0894 74.2285 35.3685C74.7463 35.0563 74.6945 33.9969 75.2217 34.328C75.3676 33.8787 75.0664 33.8928 74.9864 34.0063C75.137 33.4908 75.2217 33.0557 75.1229 32.5827C75.33 32.3179 75.3818 30.095 75.876 29.6599C75.5418 29.9531 75.7301 29.6126 75.6454 29.2768L75.3535 29.5322L75.4712 28.818C75.4665 28.6667 75.4806 28.6288 75.5041 28.6336C75.5324 28.5106 75.6454 28.6809 75.7489 28.3782C75.8195 27.891 75.6877 27.8484 75.5842 27.5647L75.5371 27.6356L75.5512 27.2998C75.5842 27.0539 75.7066 28.1937 75.9231 27.4086C75.8525 27.3897 75.57 26.8789 75.7772 26.685C75.7207 27.0917 75.9043 27.0586 75.9937 26.9167L76.069 26.3444L75.7301 26.5005C75.9184 24.8594 76.295 23.1614 76.3938 21.3926C76.6762 21.4351 76.488 20.144 76.8928 20.3284L76.8504 20.3946C76.8645 20.8345 77.1846 20.2906 77.1611 19.9311C77.0058 20.2953 76.7892 19.2406 76.6715 20.1392L76.5209 19.4298C75.7536 18.99 76.7092 17.5664 76.535 16.4927C76.5586 16.5684 76.6009 16.5921 76.6245 16.6015C76.4409 15.6367 77.0105 14.511 76.9022 14.284L77.1234 14.2178C76.8598 13.3854 76.841 13.2908 77.0575 12.3449C77.0905 12.3591 77.147 12.4773 77.2035 12.3307C77.0622 12.0848 76.9257 11.8388 77.0246 11.1909L77.0905 11.224L77.1423 10.2024C77.8154 10.2639 76.8787 8.41936 77.6271 8.17342C77.4435 7.95586 77.4435 7.20859 77.3729 6.87279C77.4012 6.87279 77.4341 6.85387 77.4671 6.80184C77.1281 6.39037 77.6601 5.67148 77.6318 5.25054C77.5424 4.99515 77.4294 5.10866 77.3164 5.20325C77.6224 4.70664 76.9069 3.9641 76.9634 3.81748C76.8928 3.49114 77.1752 3.62357 77.2929 3.49114C77.0717 3.00873 76.7704 3.76546 76.7657 3.04183C76.8222 3.10332 76.9022 3.22629 76.9163 3.16007C76.8881 2.91886 77.3447 2.09119 77.034 1.91619V2.13848C76.9257 2.05335 76.8598 1.92565 76.8128 1.7885L76.7421 1.5804L76.7186 1.4858V1.48107C76.7327 1.23514 76.6857 2.03443 76.7516 0.927714H76.7563L76.7704 0.922984L76.7986 0.913525L76.8504 0.894607C77.1234 0.785827 77.3306 0.691235 77.2176 0.487864L77.0387 0.364895C77.2694 0.251385 77.4012 0.175712 77.4812 0.114227L77.5706 0.0338247L77.5989 0.000717677C77.4388 -0.00874147 78.9922 0.0811204 78.3332 0.0432838L78.3379 0.0480134L78.3473 0.0574726L78.3661 0.0716613C78.4509 0.147334 78.5497 0.232467 78.7663 0.74799L78.7286 0.757449C79.0581 1.1169 78.8981 1.47161 79.2982 1.52364L79.2699 1.35811C79.5194 1.88309 79.5759 1.93038 79.7265 2.4932C79.7783 2.54996 79.9054 2.80535 79.863 2.90468C80.1784 2.84792 80.3102 4.20058 80.3102 4.45125C80.1925 4.00667 80.1125 4.24314 80.0184 4.38503C80.2914 4.61205 80.3526 4.80123 80.2161 5.1796C80.5691 5.19379 80.9504 5.2269 81.0351 5.9789C80.9739 5.86539 80.9269 5.68567 80.861 5.76607C80.7951 5.84647 80.8892 6.01201 80.9175 6.06876C80.8516 6.14443 80.7762 5.91268 80.6633 6.00255C81.0304 6.48023 80.7151 6.85387 80.8563 7.56331C80.7433 7.33629 80.6821 7.5302 80.5597 7.6106C80.9551 7.66736 80.1973 8.56598 80.7151 8.30585C80.3808 9.68688 80.5268 11.7442 80.1831 12.255C80.0325 12.3922 80.249 12.7753 80.2443 13.0118L80.0702 12.9739C80.3573 13.6455 80.1643 13.4895 80.4514 14.2746C80.2585 13.9482 80.1549 14.0759 79.976 14.3881L80.3149 14.932L80.0419 15.0218C80.1408 15.2441 80.0843 15.4853 80.0325 15.7266C80.0325 15.6083 80.009 15.6698 79.9619 15.6793C80.3291 15.8117 80.249 16.7576 80.4185 16.9137C80.0466 17.136 80.4844 17.5522 80.1361 17.713C80.1878 17.7934 80.2208 17.8974 80.249 18.0062C80.4138 17.8974 80.5927 17.8643 80.5079 18.0771L80.5126 18.1292L80.2961 18.2143C80.3385 18.4319 80.3526 18.6589 80.3526 18.8055C80.3714 18.7393 80.4138 18.6683 80.4656 18.5879L80.3479 18.8481L80.3432 18.9285L80.3338 18.8812C80.2773 19.0136 80.249 19.1508 80.3102 19.3399C79.9525 20.0872 80.6821 21.052 80.202 21.875C80.2537 21.752 80.282 21.5723 80.2067 21.5203C80.1973 22.225 79.863 22.9108 80.0043 23.3601L80.202 23.3364C80.2679 23.8567 80.3102 24.2587 80.282 24.6749L80.5032 24.708C80.3903 25.3134 80.6774 26.6377 80.202 26.964C80.3761 27.1201 80.1125 27.787 80.1596 28.1322L79.9854 28.2126C79.9148 28.6572 79.9666 28.9315 80.0043 29.2011C79.6183 30.095 79.9431 30.9463 79.8913 31.7362L79.8442 31.7409L79.9431 32.5496C79.7924 32.3368 80.0466 32.7104 79.9948 32.9517C80.0702 33.2118 80.0137 33.6233 79.896 33.9212L79.8725 34.432C79.7736 33.8597 79.6277 34.4651 79.4253 34.4935L79.5759 34.8246C79.4771 34.9523 79.4253 34.607 79.3782 34.8482C79.4771 35.0705 79.4535 35.7185 79.6512 35.9266C79.703 35.8982 79.7501 35.8178 79.7924 35.7232C79.7783 35.6948 79.783 35.6995 79.7971 35.7137L79.8066 35.6901L79.8018 35.7185L79.8772 35.8083C79.8207 36.2151 79.9054 36.0684 79.9996 36.0543C79.6748 36.5083 79.8772 36.7732 79.5053 37.1184C79.9289 36.6502 79.477 38.1826 79.8725 37.8941C79.5477 38.2299 79.8489 38.1305 79.5759 38.3434C79.6748 37.861 79.4064 37.3691 79.2841 36.9718L79.0863 37.3502C78.7427 37.09 79.2464 36.4894 79.1287 36.2576C79.2087 36.4137 79.1146 36.759 79.0346 36.7684L79.3076 36.6738C79.4347 36.1299 79.237 35.6853 79.1099 35.2928C79.011 35.657 78.9593 34.8435 78.7616 35.1036L78.7851 35.3968C78.6862 35.5245 78.6109 35.2455 78.5356 35.08C78.7568 34.1672 78.6345 32.4834 78.8604 32.1618C78.7851 32.3463 78.8369 32.6915 78.9075 32.8571L79.0346 32.4314C79.0346 32.7814 78.7851 33.051 78.8604 33.5712C79.0346 33.4908 79.2558 33.8692 79.5053 33.4861C79.8018 32.5071 79.0816 32.6632 79.1805 31.476C79.1287 31.3625 79.4535 31.7314 79.3829 31.0977C79.2323 30.2984 78.8651 29.6977 78.4932 29.6883C78.5921 30.0288 78.7898 30.7051 78.5168 30.7997C78.4179 30.4639 78.3708 29.8774 78.1967 29.8443C78.5215 29.5085 78.2673 30.4828 78.545 30.0335C78.545 29.797 78.4462 29.693 78.3944 29.5795C78.5215 29.7403 78.6203 29.3761 78.6956 29.3099C78.7239 28.5484 78.8745 28.1133 78.9357 27.2951C78.9828 27.2525 79.0863 27.1674 79.1617 27.1958C79.0911 26.7938 78.658 26.1978 78.4556 26.3397C78.465 25.8668 78.6156 25.8573 78.5544 25.4506C78.2391 26.0654 78.6062 25.3276 78.3097 25.2425C78.2908 24.8357 78.4603 25.11 78.5403 24.9256C78.5121 24.8546 78.4179 24.6891 78.3379 24.6749C78.578 24.4384 78.9075 25.1904 79.1852 24.9067C79.3641 24.7127 79.7077 23.852 79.7312 23.7905C79.4865 23.5824 78.4368 23.5918 78.0884 23.8661C77.9142 23.8283 78.2955 23.4925 78.3191 23.3128C78.625 22.8115 78.1355 22.5135 78.2626 22.0926L78.4038 22.4284C78.4791 22.3621 78.4132 21.7236 78.3191 21.6196C78.4179 21.6054 78.8133 21.9696 78.9404 21.7757C79.0252 21.0048 78.5121 20.248 78.2155 20.2859L78.4697 21.4824C78.2202 21.5155 78.2579 20.6311 77.9613 20.669L78.0978 19.5812C78.0978 19.7183 78.1496 20.144 78.2955 19.9832C78.3002 19.5149 78.3473 19.742 78.4791 19.4345C78.7663 19.9832 79.5288 21.0048 79.896 21.3737L79.7548 20.8014L79.9054 20.669C79.7407 19.9264 78.8039 19.2217 78.5544 19.0183C78.6345 18.5974 79.157 18.7677 79.2558 18.8717C79.317 18.044 78.545 18.0204 78.6533 17.188L78.5356 17.5238C78.4932 17.3251 78.6345 16.611 78.5309 16.6819C78.6768 16.5211 79.0157 16.384 79.0958 16.5731L78.6345 15.8117C78.6815 15.9205 79.1099 15.8684 79.1805 15.9205C79.2087 15.6225 78.7145 15.3907 78.6392 15.5799C78.9687 15.0124 78.7992 15.1495 79.1758 14.6908C79.1523 14.5158 78.7239 14.686 78.6768 14.809C78.578 14.4165 78.6439 14.1894 78.7004 14.0097C78.851 14.6577 79.6371 14.2273 79.9572 14.3644L78.7568 12.9266C78.8322 12.9787 79.2276 13.1064 79.2793 13.0969C78.9075 12.9645 78.9357 11.3801 79.0299 10.6044V10.7227C79.1475 10.8882 79.2888 10.2213 79.1711 9.94701C79.2417 9.99431 79.2181 10.0605 79.2181 10.174C79.5241 9.67742 78.6815 9.48351 79.0393 8.97745C78.9781 9.44568 79.124 9.545 79.2746 9.53081C79.1664 9.13825 79.3311 8.24909 78.8839 8.42409C78.9828 8.18288 78.9263 7.96059 79.1522 7.98424C79.0769 7.66736 78.9781 7.3552 78.8839 7.05251C78.931 7.11873 79.0628 7.18021 79.0863 6.90589C79.0487 7.42615 79.4535 7.94167 79.157 8.22072C79.43 8.23963 79.5759 8.04099 79.8066 8.30112C79.7077 7.25588 79.1993 6.69779 78.8557 6.09714L78.9781 5.20798L78.851 5.18433L79.1475 4.99515C79.0581 4.89583 78.9828 4.83434 79.011 4.81069C79.0346 4.78705 79.0816 4.80596 79.1334 4.8438C79.1005 4.75394 79.0628 4.67354 79.0204 4.6357C79.1758 4.57421 79.3923 4.70191 79.59 4.84853L79.4441 5.11812C79.6183 5.27419 79.7924 5.39243 79.8725 5.12758L79.7924 5.00461C79.9195 5.10393 80.0231 5.16541 80.0607 5.07555C79.9996 4.8438 79.8913 4.61678 79.8066 4.38976C79.7783 4.47489 79.7077 4.60732 79.6324 4.75867C79.3547 4.35193 79.0252 3.93099 78.8839 4.33774L78.9781 3.79857C78.5215 3.30669 78.6015 3.39182 78.1967 2.80063C78.2908 2.72495 78.4273 2.87157 78.4697 2.72495C77.9425 2.43172 78.352 1.4054 77.9754 1.49053C77.6836 1.21149 77.6554 1.50945 77.4482 1.36756C77.4812 1.35338 77.5518 1.32973 77.5141 1.27297L77.1799 1.18784C77.1799 1.1169 77.2411 1.14054 77.2976 1.14527C77.3258 1.15 77.3494 1.14527 77.3588 1.12163L77.3635 1.0696L77.3541 1.02703L77.3494 0.998658V0.993928V0.989198C79.7454 1.13109 78.0131 1.02704 78.545 1.06014L78.5262 1.0696C78.3379 1.34865 78.192 1.57567 78.0319 1.76485L77.7777 2.02498L77.7589 2.03916L77.7495 2.04862H77.7448C77.726 2.37496 77.9095 -0.79858 77.8342 0.544619L77.8389 0.554078L77.886 0.610833L77.9613 0.719613L78.0837 0.932444C78.6392 1.68445 78.2343 0.336517 78.6345 1.03649C78.545 1.23514 78.4085 1.43378 78.6062 1.86417C78.8322 2.03443 78.9404 1.94457 79.1946 2.32294L78.9216 2.40334C79.0958 2.75806 79.204 3.07021 79.011 3.12697C79.2276 3.39655 79.2464 3.63303 79.2276 3.80802C79.4676 4.39922 79.7407 3.24993 79.7595 3.06075C79.7124 3.72762 79.8913 4.15328 79.5806 4.53638C79.5618 4.35665 79.4865 4.18166 79.4394 4.00667C79.2182 5.13703 79.9007 5.13231 79.3123 5.58634C79.3547 5.24581 79.1758 4.7634 79.0346 4.99515C79.0816 5.16541 79.1428 5.36405 79.1758 5.52486C79.1005 5.58161 79.1381 5.24109 79.044 5.46338C79.0958 5.60526 79.2229 5.88904 79.3076 6.02146L79.2888 6.01201L79.2793 6.87752C79.3029 6.71671 79.1993 6.66469 79.1805 6.83022L79.2888 7.40723C79.2323 7.22751 79.1287 7.39777 79.0628 7.65317C78.9216 8.37206 79.6512 8.2822 79.3217 8.8261C79.3311 8.7457 79.2982 8.72678 79.3076 8.64638L79.1617 8.92542C79.7548 9.0342 79.0769 10.6375 79.67 10.7558C79.3923 11.1483 79.5241 10.77 79.2888 10.2166L79.0816 10.6423C79.0628 10.4625 79.124 10.3159 79.0816 10.1173Z" fill="#FDD24F"/>
<path id="Vector_71" d="M78.9072 4.70263C78.9357 4.66452 78.9736 4.65022 79.0116 4.63117C78.9689 4.58829 78.9309 4.59305 78.9072 4.70263Z" fill="#FDD24F"/>
</g>
<path id="Vector_72" d="M78.8277 14.7191L78.8228 14.7388L78.8619 14.7634L78.8277 14.7191Z" fill="#FDD24F"/>
<g id="Group_12">
<path id="Vector_73" d="M78.2246 24.935C78.2623 24.8168 78.3046 24.7506 78.347 24.708C78.2952 24.6985 78.2481 24.7506 78.2246 24.935Z" fill="#FDD24F"/>
<path id="Vector_74" d="M79.9569 37.2744L79.9145 36.8961C79.9192 37.0805 79.8674 37.142 79.8345 37.2319C79.8815 37.2271 79.9569 37.1562 79.9569 37.2744Z" fill="#FDD24F"/>
<path id="Vector_75" d="M78.5352 40.5142C78.5587 40.571 78.5352 40.6324 78.5587 40.6892L78.6575 40.6797C78.6575 40.4385 78.5869 40.273 78.5352 40.5142Z" fill="#FDD24F"/>
<path id="Vector_76" d="M79.2414 37.6055C79.0626 37.6292 79.1143 37.8704 79.1426 38.1352V38.0879C79.3874 38.1731 79.3167 37.8893 79.2414 37.6055Z" fill="#FDD24F"/>
<path id="Vector_77" d="M79.1424 38.1967L79.1377 38.4427C79.2366 38.4758 79.1612 38.3433 79.1424 38.1967Z" fill="#FDD24F"/>
<path id="Vector_78" d="M79.7828 34.8908C79.7357 35.0137 80.0087 34.9759 79.9334 35.0468C80.1593 35.1887 79.6839 34.2002 79.7828 34.8908Z" fill="#FDD24F"/>
</g>
<path id="Vector_79" d="M78.6484 37.7994L78.8697 37.7143L78.6955 37.5582L78.6484 37.7994Z" fill="#FDD24F"/>
<g id="Group_13">
<path id="Vector_80" d="M78.8697 35.7137L78.7944 36.1346C78.8321 36.1299 78.8509 36.1819 78.865 36.2481C78.8839 35.9927 78.9356 35.709 78.8697 35.7137Z" fill="#FDD24F"/>
<path id="Vector_81" d="M78.8695 36.2529C78.8601 36.3901 78.8601 36.5178 78.8977 36.5934C78.893 36.5178 78.893 36.3617 78.8695 36.2529Z" fill="#FDD24F"/>
</g>
<path id="Vector_82" d="M78.6812 37.4257L78.7329 37.3027L78.7565 37L78.6812 37.4257Z" fill="#FDD24F"/>
<g id="Group_14">
<path id="Vector_83" d="M79.0439 31.1734L78.9968 30.7099C78.9215 30.6626 78.8697 30.7855 78.898 30.9558C78.945 31.0693 78.9686 31.2396 79.0439 31.1734Z" fill="#FDD24F"/>
<path id="Vector_84" d="M78.3991 32.5496C78.4462 32.4267 78.498 32.4172 78.5733 32.351L78.3003 32.3274L78.3991 32.5496Z" fill="#FDD24F"/>
<path id="Vector_85" d="M78.3754 31.2017C78.3001 31.1544 78.1777 30.5254 78.1777 31.1119C78.2483 31.1592 78.3001 31.6227 78.3754 31.2017Z" fill="#FDD24F"/>
</g>
<path id="Vector_86" d="M79.0107 24.2587V24.3769L79.4579 24.3817L79.0107 24.2587Z" fill="#FDD24F"/>
<g id="Group_15">
<path id="Vector_87" d="M78.206 18.0913C78.0742 18.6352 78.479 18.2332 78.3237 18.7203C78.4226 18.8528 78.4508 18.323 78.5355 18.4555C78.4367 18.1244 78.512 17.9541 78.206 18.0913Z" fill="#FDD24F"/>
<path id="Vector_88" d="M78.5356 18.4555L78.5968 18.6258C78.5733 18.5312 78.5545 18.4839 78.5356 18.4555Z" fill="#FDD24F"/>
</g>
<path id="Vector_89" d="M73.5505 49.8835L73.3999 50.2051L73.5882 50.0159L73.5505 49.8835Z" fill="#72B0DB"/>
<g id="Group_16">
<path id="Vector_90" d="M73.7624 50.593L73.4658 50.6166L73.6824 50.8673C73.6824 50.7916 73.6871 50.6403 73.7624 50.593Z" fill="#72B0DB"/>
<path id="Vector_91" d="M79.4722 2.53105L79.3969 2.52159C79.3451 2.61145 79.3733 2.71077 79.4204 2.90469L79.4722 2.53105Z" fill="#FDD24F"/>
</g>
<path id="Vector_92" d="M79.524 7.87543L79.5335 7.7903L79.2651 7.92745L79.524 7.87543Z" fill="#FDD24F"/>
<g id="Group_17">
<path id="Vector_93" d="M79.5193 11.9145C79.5429 11.7537 79.5005 11.5551 79.5287 11.3943C79.5429 11.749 79.1945 11.9287 79.5193 11.9145Z" fill="#FDD24F"/>
</g>
<g id="Group_18">
<path id="Vector_94" d="M87.771 41.4933V40.7507C87.771 39.942 87.3991 39.5967 86.9801 39.5967C86.3211 39.5967 86.1093 39.942 86.1093 40.6561V45.5134C86.1093 46.2323 86.3211 46.5775 86.9801 46.5775C87.5733 46.5775 87.771 46.2323 87.771 45.608V44.454H89.4091V45.556C89.4091 46.9086 88.6183 48.0106 86.9801 48.0106C85.262 48.0106 84.4712 46.9086 84.4712 45.556V40.6136C84.4712 39.2609 85.262 38.1589 86.9801 38.1589C88.6183 38.1589 89.4091 39.3555 89.4091 40.7885V41.4933H87.771Z" fill="#72B0DB"/>
<path id="Vector_95" d="M92.0263 47.8734H90.4399L92.1957 38.2913H94.2293L95.9851 47.8734H94.3987L94.1069 45.7499H92.3087L92.0263 47.8734ZM92.5535 44.3168H93.8762L93.2266 40.2021H93.2031L92.5535 44.3168Z" fill="#72B0DB"/>
<path id="Vector_96" d="M97.4067 39.7244H95.8203V38.2913H100.626V39.7244H99.0401V47.8734H97.4019V39.7244H97.4067Z" fill="#72B0DB"/>
<path id="Vector_97" d="M101.596 47.8734V38.2913H105.983V39.7244H103.234V42.1932H105.348V43.6263H103.234V46.4404H106.167V47.8734H101.596Z" fill="#72B0DB"/>
<path id="Vector_98" d="M109.1 47.8734H107.461V38.2913H109.759C111.594 38.2913 112.531 39.0764 112.531 41.1196C112.531 42.6567 111.938 43.281 111.383 43.5364L112.771 47.8782H111.105L109.942 43.9101C109.73 43.9384 109.387 43.9479 109.095 43.9479V47.8734H109.1ZM109.1 42.5952H109.679C110.563 42.5952 110.893 42.2642 110.893 41.1196C110.893 39.9798 110.563 39.6487 109.679 39.6487H109.1V42.5952Z" fill="#72B0DB"/>
<path id="Vector_99" d="M114.292 47.8734V38.2913H115.93V47.8734H114.292Z" fill="#72B0DB"/>
<path id="Vector_100" d="M117.737 47.8734V38.2913H119.258L121.254 43.7729H121.282V38.2913H122.76V47.8734H121.334L119.248 41.8858H119.22V47.8734H117.737Z" fill="#72B0DB"/>
<path id="Vector_101" d="M126.606 43.0162H129.289V47.8734H128.498L128.192 47.1546C127.702 47.741 127.307 48.0059 126.54 48.0059C125.245 48.0059 124.346 47.0789 124.346 45.5512V40.6136C124.346 39.2609 125.137 38.1589 126.752 38.1589C128.39 38.1589 129.209 39.3555 129.209 40.7885V41.3987H127.651C127.651 39.9656 127.359 39.592 126.714 39.592C126.319 39.592 125.989 39.8284 125.989 40.6419V45.5654C125.989 46.1755 126.187 46.5728 126.756 46.5728C127.415 46.5728 127.655 46.1992 127.655 45.2438V44.3168H126.61V43.0162H126.606Z" fill="#72B0DB"/>
</g>
<g id="Group_19">
<path id="Vector_102" d="M135.681 17.4717C135.681 18.1339 135.446 18.6967 134.98 19.1649C134.514 19.6332 133.954 19.8696 133.295 19.8696C132.636 19.8696 132.076 19.6332 131.61 19.1649C131.144 18.6967 130.908 18.1339 130.908 17.4717C130.908 16.8096 131.144 16.2468 131.61 15.7786C132.076 15.3103 132.636 15.0739 133.295 15.0739C133.954 15.0739 134.514 15.3103 134.98 15.7786C135.451 16.2468 135.681 16.8096 135.681 17.4717ZM135.361 17.4717C135.361 16.8995 135.159 16.4076 134.754 15.9961C134.349 15.5846 133.864 15.3813 133.295 15.3813C132.725 15.3813 132.236 15.5846 131.836 15.9961C131.431 16.4076 131.228 16.8995 131.228 17.4717C131.228 18.044 131.431 18.5359 131.836 18.9474C132.24 19.3588 132.725 19.5622 133.295 19.5622C133.864 19.5622 134.354 19.3588 134.754 18.9474C135.154 18.5359 135.361 18.044 135.361 17.4717ZM134.834 18.692H134.217L133.304 17.7082H132.857V18.692H132.4V16.1569H133.262C133.436 16.1569 133.577 16.1664 133.69 16.1806C133.803 16.1948 133.911 16.2326 134.02 16.2894C134.137 16.3508 134.222 16.4265 134.274 16.5164C134.33 16.6062 134.354 16.7197 134.354 16.8522C134.354 17.0319 134.302 17.1785 134.199 17.3015C134.095 17.4197 133.954 17.5143 133.77 17.5853L134.834 18.692ZM133.86 16.8805C133.86 16.8143 133.846 16.7529 133.822 16.7008C133.798 16.6488 133.751 16.6062 133.69 16.5731C133.634 16.54 133.572 16.5211 133.507 16.5116C133.441 16.5022 133.361 16.4975 133.262 16.4975H132.852V17.3535H133.201C133.314 17.3535 133.412 17.344 133.497 17.3251C133.582 17.3062 133.648 17.2778 133.7 17.2353C133.756 17.188 133.798 17.1359 133.817 17.0839C133.85 17.0319 133.86 16.9657 133.86 16.8805Z" fill="#72B0DB"/>
</g>
</g>
</svg>
